<svg width="198" height="198" viewBox="0 0 198 198" fill="none" xmlns="http://www.w3.org/2000/svg">
<path d="M99 0C44.352 0 0 44.352 0 99C0 153.648 44.352 198 99 198C153.648 198 198 153.648 198 99C198 44.352 153.648 0 99 0ZM99 29.7C115.434 29.7 128.7 42.966 128.7 59.4C128.7 75.834 115.434 89.1 99 89.1C82.566 89.1 69.3 75.834 69.3 59.4C69.3 42.966 82.566 29.7 99 29.7ZM99 170.28C74.25 170.28 52.371 157.608 39.6 138.402C39.897 118.701 79.2 107.91 99 107.91C118.701 107.91 158.103 118.701 158.4 138.402C145.629 157.608 123.75 170.28 99 170.28Z" fill="#CCCCCC"/>
</svg>
